<svg width="53" height="82" viewBox="0 0 53 82" fill="none" xmlns="http://www.w3.org/2000/svg">
<path d="M52.7621 80.2766C46.9545 82.0158 40.8334 82.4454 34.8398 81.5346C28.8462 80.6237 23.1292 78.395 18.1005 75.009C13.0718 71.623 8.85658 67.164 5.75838 61.953C2.66019 56.742 0.756151 50.9089 0.183392 44.8736C-0.389368 38.8383 0.383407 32.751 2.44606 27.0503C4.50872 21.3496 7.80992 16.1772 12.1119 11.9057C16.4139 7.63419 21.6096 4.36987 27.3249 2.34781C33.0402 0.325759 39.1327 -0.403698 45.1638 0.211977L44.4669 7.03891C39.4453 6.52628 34.3724 7.13365 29.6138 8.81726C24.8551 10.5009 20.529 13.2188 16.9471 16.7754C13.3651 20.3319 10.6165 24.6386 8.89906 29.3852C7.18165 34.1317 6.53821 39.2001 7.01511 44.2252C7.492 49.2504 9.07735 54.1072 11.657 58.446C14.2366 62.7848 17.7463 66.4975 21.9333 69.3167C26.1204 72.136 30.8805 73.9917 35.8709 74.7501C40.8613 75.5085 45.9578 75.1508 50.7934 73.7027L52.7621 80.2766Z" fill="#F6C863"/>
</svg>
